<?xml version="1.0" encoding="UTF-8" standalone="no"?>
<svg
   xmlns:dc="http://purl.org/dc/elements/1.1/"
   xmlns:cc="http://creativecommons.org/ns#"
   xmlns:rdf="http://www.w3.org/1999/02/22-rdf-syntax-ns#"
   xmlns:svg="http://www.w3.org/2000/svg"
   xmlns="http://www.w3.org/2000/svg"
   viewBox="0 0 2560 2560"
   height="2560"
   width="2560"
   xml:space="preserve"
   id="svg2"
   version="1.1"><metadata
     id="metadata8"><rdf:RDF><cc:Work
         rdf:about=""><dc:format>image/svg+xml</dc:format><dc:type
           rdf:resource="http://purl.org/dc/dcmitype/StillImage" /></cc:Work></rdf:RDF></metadata><defs
     id="defs6"><clipPath
       id="clipPath18"
       clipPathUnits="userSpaceOnUse"><path
         id="path16"
         d="m 307.961,1541.349 c -39.09,-20.303 -72.993,-47.721 -101.718,-82.245 v 0 c -28.731,-34.532 -49.305,-72.507 -61.735,-113.941 v 0 c -9.394,-31.217 -12.701,-60.149 -9.944,-86.801 v 0 c 2.758,-26.659 10.909,-50.477 24.446,-71.472 v 0 c 10.494,-16.294 24.237,-29.968 41.226,-41.019 v 0 c 16.986,-11.045 35.075,-18.851 54.277,-23.409 v 0 c 19.194,-4.558 39.425,-6.35 60.698,-5.386 v 0 c 21.267,0.971 41.498,4.493 60.699,10.565 v 0 c 19.196,6.079 37.083,15.123 53.655,27.139 v 0 c 16.574,12.015 29.97,26.173 40.191,42.469 v 0 c 10.773,18.508 15.602,35.767 14.502,51.791 v 0 c -1.108,16.016 -6.773,29.138 -16.988,39.36 v 0 c -12.709,12.153 -29.21,17.402 -49.512,15.746 v 0 c -20.302,-1.658 -35.289,-9.116 -44.955,-22.374 v 0 c 24.581,-12.431 34.388,-31.075 29.418,-55.934 v 0 c -3.044,-14.639 -8.43,-27.482 -16.159,-38.533 v 0 c -7.736,-11.045 -16.716,-19.539 -26.931,-25.482 v 0 c -10.223,-5.936 -21.481,-9.387 -33.768,-10.358 v 0 c -12.294,-0.964 -24.31,0.556 -36.047,4.557 v 0 c -11.744,4.008 -23.202,11.187 -34.389,21.546 v 0 c -11.188,10.359 -20.652,23.273 -28.383,38.739 v 0 c -9.113,18.781 -14.229,38.184 -15.329,58.214 v 0 c -1.107,20.024 1.1,38.803 6.629,56.349 v 0 c 5.523,17.537 13.395,34.596 23.617,51.169 v 0 c 10.215,16.574 21.475,31.21 33.769,43.918 v 0 c 12.286,12.702 25.201,23.753 38.739,33.147 v 0 c 24.581,17.401 55.934,29.275 94.052,35.633 v 0 c 16.017,2.757 30.039,3.864 42.055,3.314 v 0 c 12.015,-0.557 21.337,-2.628 27.966,-6.216 v 0 c 6.63,-3.593 11.458,-7.872 14.502,-12.843 v 0 c 3.037,-4.973 3.794,-10.638 2.279,-16.988 v 0 c -1.52,-6.358 -4.557,-12.573 -9.115,-18.645 v 0 c -4.557,-6.078 -11.187,-12.015 -19.888,-17.816 v 0 c -8.7,-5.8 -18.579,-10.636 -29.625,-14.501 v 0 c -10.222,-3.593 -19.472,-5.943 -27.76,-7.044 v 0 c -8.286,-1.107 -15.473,-1.45 -21.545,-1.036 v 0 c -6.079,0.415 -13.051,2.416 -20.924,6.008 v 0 c -7.87,3.586 -14.229,6.902 -19.057,9.944 v 0 c -4.837,3.037 -12.503,8.008 -22.996,14.916 v 0 c -8.015,-16.023 -12.637,-30.868 -13.881,-44.54 v 0 c -1.243,-13.674 0.415,-25.003 4.972,-33.976 v 0 c 4.557,-8.978 11.459,-16.229 20.718,-21.752 v 0 c 9.25,-5.528 19.815,-8.772 31.696,-9.737 v 0 c 11.873,-0.97 24.923,0.48 39.153,4.351 v 0 c 14.222,3.865 28.381,9.945 42.468,18.23 v 0 c 13.531,8.287 25.753,18.023 36.669,29.21 v 0 c 10.908,11.188 19.889,22.79 26.931,34.805 v 0 c 7.043,12.015 12.358,24.444 15.952,37.289 v 0 c 3.587,12.843 5.315,25.132 5.178,36.874 v 0 c -0.142,11.739 -2.485,22.925 -7.043,33.562 v 0 c -4.557,10.63 -11.051,19.887 -19.473,27.761 v 0 c -8.428,7.872 -19.473,14.15 -33.147,18.851 v 0 c -13.672,4.694 -29.352,7.043 -47.026,7.043 v 0 c -40.331,0 -80.037,-10.151 -119.119,-30.452" /></clipPath><linearGradient
       id="linearGradient30"
       spreadMethod="pad"
       gradientTransform="matrix(0,-454.97885,-454.97885,0,333.70081,1571.8018)"
       gradientUnits="userSpaceOnUse"
       y2="0"
       x2="1"
       y1="0"
       x1="0"><stop
         id="stop24"
         offset="0"
         style="stop-opacity:1;stop-color:#f15a24" /><stop
         id="stop26"
         offset="0.998533"
         style="stop-opacity:1;stop-color:#ffff00" /><stop
         id="stop28"
         offset="1"
         style="stop-opacity:1;stop-color:#ffff00" /></linearGradient><clipPath
       id="clipPath40"
       clipPathUnits="userSpaceOnUse"><path
         id="path38"
         d="M 0,1920 H 1920 V 0 H 0 Z" /></clipPath><clipPath
       id="clipPath52"
       clipPathUnits="userSpaceOnUse"><path
         id="path50"
         d="m 905.002,1528.918 c -9.258,-1.244 -17.13,-5.043 -23.618,-11.394 v 0 c -6.492,-6.357 -12.085,-14.916 -16.779,-25.689 v 0 c -6.909,-16.851 -14.644,-40.882 -23.203,-72.092 v 0 h -6.214 c -4.973,0 -8.43,-0.415 -10.359,-1.243 v 0 c -1.935,-0.828 -3.314,-2.143 -4.143,-3.936 v 0 c -0.828,-1.801 -1.936,-5.594 -3.314,-11.394 v 0 c -0.557,-2.765 -1.107,-4.836 -1.659,-6.216 v 0 h 19.888 c -5.249,-20.994 -10.086,-41.296 -14.501,-60.905 v 0 l -13.672,-60.079 c -0.763,-3.195 -1.264,-6.264 -1.516,-9.213 v 0 c -3.96,-6.617 -7.738,-10.038 -11.326,-10.26 v 0 c -6.08,-0.278 -6.774,9.666 -2.073,29.832 v 0 c 2.758,11.601 6.558,27.617 11.395,48.061 v 0 c 4.828,20.438 8.213,35.076 10.151,43.919 v 0 c -11.603,4.973 -22.168,6.63 -31.697,4.973 v 0 c -9.529,-1.658 -16.644,-7.6 -21.338,-17.816 v 0 c -6.908,10.772 -17.13,16.158 -30.66,16.158 v 0 c -5.251,0 -10.638,-0.97 -16.16,-2.9 v 0 c -19.058,-6.629 -34.53,-22.787 -46.403,-48.476 v 0 c -9.644,-21.584 -13.65,-41.637 -12.034,-60.164 v 0 c -4.416,-8.799 -8.827,-13.331 -13.239,-13.587 v 0 c -6.078,-0.557 -6.772,9.387 -2.071,29.832 v 0 c 7.457,30.382 11.323,47.091 11.602,50.133 v 0 c 1.378,7.458 0.893,14.502 -1.452,21.131 v 0 c -2.35,6.63 -6.007,11.873 -10.979,15.745 v 0 c -4.972,3.865 -10.637,6.694 -16.987,8.494 v 0 c -6.357,1.793 -13.193,2 -20.51,0.62 v 0 c -7.321,-1.385 -14.022,-4.285 -20.095,-8.701 v 0 c 12.981,53.586 24.583,92.947 34.805,118.084 v 0 c 4.971,12.43 11.458,21.96 19.472,28.589 v 0 c -11.05,6.902 -21.201,9.737 -30.453,8.494 v 0 c -9.257,-1.244 -17.194,-5.043 -23.824,-11.394 v 0 c -6.629,-6.357 -12.157,-14.916 -16.572,-25.689 v 0 c -3.042,-7.735 -6.215,-16.436 -9.529,-26.101 v 0 c -3.315,-9.674 -6.63,-20.717 -9.945,-33.147 v 0 c -3.314,-12.43 -6.214,-23.274 -8.701,-32.525 v 0 c -2.486,-9.258 -5.528,-21.688 -9.115,-37.289 v 0 c -3.594,-15.609 -6.15,-26.724 -7.664,-33.353 v 0 c -1.522,-6.63 -4.08,-18.167 -7.667,-34.597 v 0 c -3.584,-16.438 -5.658,-25.895 -6.213,-28.382 v 0 c -3.588,-15.472 -1.658,-26.174 5.799,-32.111 v 0 c 7.46,-5.942 19.475,-8.907 36.047,-8.907 v 0 c 1.657,7.457 5.109,22.509 10.358,45.161 v 0 c 5.244,22.646 9.252,40.191 12.015,52.619 v 0 c 1.101,4.695 2.902,9.252 5.386,13.674 v 0 c 5.523,9.944 11.324,15.052 17.404,15.33 v 0 c 5.522,0.55 7.593,-4.836 6.214,-16.158 v 0 c -0.557,-5.53 -1.592,-11.603 -3.108,-18.231 v 0 c -1.52,-6.63 -3.315,-14.159 -5.387,-22.581 v 0 c -2.07,-8.429 -3.52,-14.572 -4.348,-18.439 v 0 c -3.594,-14.643 -1.451,-26.865 6.42,-36.667 v 0 c 7.873,-9.808 18.16,-14.708 30.868,-14.708 v 0 c 11.874,0 22.924,4.828 33.147,14.502 v 0 c 1.685,1.594 3.29,3.319 4.817,5.169 v 0 c 6.356,-12.282 17.04,-18.428 32.056,-18.428 v 0 c 16.571,0 31.76,8.007 45.575,24.031 v 0 c 2.486,-7.187 6.694,-13.052 12.638,-17.609 v 0 c 5.936,-4.557 12.7,-7.043 20.302,-7.459 v 0 c 7.594,-0.413 15.187,1.037 22.788,4.351 v 0 c 5.57,2.431 10.843,6.465 15.822,12.092 v 0 c 2.181,-3.366 4.983,-6.431 8.415,-9.192 v 0 c 11.872,-9.387 25.273,-11.187 40.189,-5.386 v 0 c 19.888,7.457 33.146,25.546 39.776,54.278 v 0 c 4.693,19.887 8.559,36.182 11.602,48.889 v 0 c -1.387,0 -3.18,0.137 -5.388,0.415 v 0 c -6.357,0 -10.357,-0.485 -12.016,-1.449 v 0 c -1.656,-0.971 -3.042,-4.215 -4.142,-9.738 v 0 c -3.872,-16.022 -6.63,-28.037 -8.286,-36.046 v 0 c -1.109,-4.143 -2.486,-8.015 -4.145,-11.6 v 0 c -4.699,-10.774 -9.393,-16.439 -14.086,-16.989 v 0 c -5.802,-0.557 -6.909,7.873 -3.315,25.274 v 0 l 1.243,6.215 c 12.152,54.135 21.529,94.688 25.672,111.261 v 0 c 0,0 20.318,-0.292 21.977,1.23 v 0 c 1.656,1.514 3.314,6.279 4.97,14.293 v 0 c 0.552,2.486 0.965,4.558 1.243,6.216 v 0 h -22.374 c 8.288,30.66 16.018,54.691 23.203,72.092 v 0 c 5.244,12.702 11.738,22.232 19.475,28.589 v 0 c -9.367,5.85 -18.088,8.778 -26.161,8.778 v 0 c -1.452,0 -2.882,-0.094 -4.293,-0.284 M 712.548,1271.413 c -2.766,11.602 -0.694,28.033 6.215,49.306 v 0 c 6.901,21.815 14.637,32.732 23.201,32.732 v 0 c 3.588,-0.279 6.074,-2.765 7.46,-7.459 v 0 c 2.757,-11.88 -0.279,-29.003 -9.116,-51.377 v 0 c -7.736,-19.887 -14.916,-29.832 -21.545,-29.832 v 0 c -3.043,0 -5.114,2.208 -6.215,6.63" /></clipPath><linearGradient
       id="linearGradient64"
       spreadMethod="pad"
       gradientTransform="matrix(0,-305.02948,-305.02948,0,720.16791,1529.2024)"
       gradientUnits="userSpaceOnUse"
       y2="0"
       x2="1"
       y1="0"
       x1="0"><stop
         id="stop58"
         offset="0"
         style="stop-opacity:1;stop-color:#f15a24" /><stop
         id="stop60"
         offset="0.998533"
         style="stop-opacity:1;stop-color:#ffff00" /><stop
         id="stop62"
         offset="1"
         style="stop-opacity:1;stop-color:#ffff00" /></linearGradient><clipPath
       id="clipPath74"
       clipPathUnits="userSpaceOnUse"><path
         id="path72"
         d="M 0,1920 H 1920 V 0 H 0 Z" /></clipPath><clipPath
       id="clipPath86"
       clipPathUnits="userSpaceOnUse"><path
         id="path84"
         d="m 991.651,1443.239 c -5.802,-0.142 -11.33,-2.835 -16.574,-8.079 v 0 c -8.564,-8.566 -16.716,-24.032 -24.446,-46.405 v 0 c -22.101,-1.658 -37.432,-6.358 -45.99,-14.087 v 0 c -4.142,-3.593 -7.25,-6.422 -9.322,-8.494 v 0 c -2.072,-2.071 -4.079,-5.179 -6.007,-9.322 v 0 c -1.936,-4.145 -2.487,-8.429 -1.659,-12.845 v 0 c 10.774,4.416 28.725,7.73 53.864,9.944 v 0 c -3.315,-20.716 -2.487,-36.188 2.485,-46.405 v 0 c 2.208,-4.422 4.072,-7.943 5.594,-10.564 v 0 c 1.515,-2.628 4.001,-5.388 7.459,-8.287 v 0 c 3.45,-2.9 7.387,-4.629 11.808,-5.18 v 0 c -1.937,15.467 0.828,39.498 8.285,72.094 v 0 c 34.248,0 55.935,-3.872 65.05,-11.602 v 0 c 5.245,7.459 7.044,14.016 5.386,19.681 v 0 c -1.656,5.658 -5.664,10.287 -12.014,13.88 v 0 c -10.502,6.072 -27.075,9.944 -49.721,11.601 v 0 c 7.459,23.754 15.188,38.255 23.203,43.505 v 0 c -5.692,7.045 -11.384,10.569 -17.076,10.569 v 0 c -0.109,0 -0.217,-10e-4 -0.325,0" /></clipPath><linearGradient
       id="linearGradient98"
       spreadMethod="pad"
       gradientTransform="matrix(0,-159.72812,-159.72812,0,967.73053,1443.2433)"
       gradientUnits="userSpaceOnUse"
       y2="0"
       x2="1"
       y1="0"
       x1="0"><stop
         id="stop92"
         offset="0"
         style="stop-opacity:1;stop-color:#f15a24" /><stop
         id="stop94"
         offset="0.998533"
         style="stop-opacity:1;stop-color:#ffff00" /><stop
         id="stop96"
         offset="1"
         style="stop-opacity:1;stop-color:#ffff00" /></linearGradient><clipPath
       id="clipPath108"
       clipPathUnits="userSpaceOnUse"><path
         id="path106"
         d="M 0,1920 H 1920 V 0 H 0 Z" /></clipPath><clipPath
       id="clipPath120"
       clipPathUnits="userSpaceOnUse"><path
         id="path118"
         d="m 1159.984,1563.101 c -17.131,-3.594 -33.353,-9.531 -48.683,-17.816 v 0 c -15.331,-8.288 -28.525,-18.374 -39.569,-30.247 v 0 c -11.051,-11.879 -19.267,-24.652 -24.653,-38.325 v 0 c -5.386,-13.673 -6.629,-28.381 -3.73,-44.126 v 0 c 2.902,-15.745 10.287,-30.939 22.168,-45.577 v 0 c 10.773,-12.428 23.889,-20.716 39.361,-24.859 v 0 c 15.466,-4.143 33.975,-3.178 55.521,2.9 v 0 c -11.329,5.801 -20.445,12.016 -27.348,18.645 v 0 c -19.057,18.23 -22.101,37.976 -9.114,59.25 v 0 c 11.601,19.33 32.175,33.975 61.736,43.918 v 0 c 39.497,13.53 78.994,13.259 118.497,-0.829 v 0 c 19.331,-6.907 34.805,-16.094 46.405,-27.553 v 0 c 11.601,-11.466 18.437,-23.409 20.509,-35.839 v 0 c 2.072,-12.43 -1.522,-25.003 -10.772,-37.704 v 0 c -9.257,-12.707 -28.249,-29.561 -40.036,-31.565 v 0 c -11.789,-2.004 -26.95,-5.31 -34.543,-6.14 v 0 c -7.602,-0.828 -14.78,-2.142 -21.545,-3.935 v 0 c -6.772,-1.799 -12.501,-4.492 -17.195,-8.08 v 0 c -4.701,-3.593 -7.323,-7.871 -7.873,-12.844 v 0 c -0.828,-6.629 2.624,-12.158 10.36,-16.573 v 0 c 7.728,-4.421 17.672,-5.943 29.83,-4.558 v 0 c 13.531,1.658 25.132,5.659 34.804,12.015 v 0 c 16.844,-3.592 30.381,-9.671 40.604,-18.229 v 0 c 10.217,-8.566 16.43,-17.888 18.644,-27.967 v 0 c 2.208,-10.086 2.138,-20.238 -0.206,-30.453 v 0 c -2.351,-10.223 -7.458,-19.473 -15.33,-27.761 v 0 c -7.873,-8.286 -17.337,-14.222 -28.382,-17.816 v 0 c -7.736,-2.758 -15.888,-4.143 -24.446,-4.143 v 0 c -8.564,0 -16.715,1.107 -24.445,3.315 v 0 c -7.737,2.213 -15.122,5.458 -22.167,9.737 v 0 c -7.042,4.285 -12.843,9.601 -17.4,15.952 v 0 c -4.558,6.356 -7.81,13.601 -9.738,21.751 v 0 c -1.935,8.145 -1.799,17.052 0.415,26.725 v 0 c -14.917,-7.736 -26.246,-17.266 -33.975,-28.589 v 0 c -7.736,-11.323 -11.259,-22.647 -10.565,-33.976 v 0 c 0.685,-11.322 4.07,-22.23 10.151,-32.731 v 0 c 6.072,-10.494 15.602,-19.609 28.588,-27.346 v 0 c 12.98,-7.73 27.76,-12.98 44.333,-15.744 v 0 c 31.21,-4.972 60.007,-1.036 86.388,11.808 v 0 c 26.375,12.844 46.333,33.768 59.87,62.771 v 0 c 6.351,14.088 10.008,28.381 10.98,42.882 v 0 c 0.964,14.502 -0.763,28.104 -5.179,40.813 v 0 c -4.422,12.701 -12.222,23.888 -23.409,33.56 v 0 c -11.188,9.665 -25.068,16.43 -41.641,20.303 v 0 c 21.267,11.043 37.563,24.302 48.892,39.775 v 0 c 11.322,15.465 17.123,31.282 17.401,47.44 v 0 c 0.271,16.158 -2.971,32.175 -9.737,48.061 v 0 c -6.772,15.882 -17.265,30.518 -31.489,43.921 v 0 c -14.23,13.393 -30.453,24.237 -48.684,32.524 v 0 c -21.545,9.665 -47.997,15.88 -79.342,18.646 v 0 c -9.498,0.835 -18.999,1.252 -28.509,1.252 v 0 c -21.883,0 -43.802,-2.212 -65.752,-6.639 m 96.952,-98.196 c -8.564,-3.315 -16.301,-8.845 -23.202,-16.573 v 0 c -6.908,-7.736 -13.879,-17.752 -20.925,-30.04 v 0 c -7.041,-12.294 -13.535,-25.138 -19.472,-38.533 v 0 c -5.944,-13.401 -12.294,-27.28 -19.059,-41.638 v 0 c -6.772,-14.366 -13.259,-27.625 -19.474,-39.777 v 0 c -6.214,-12.157 -13.122,-23.202 -20.715,-33.146 v 0 c -7.6,-9.944 -15.124,-16.988 -22.581,-21.131 v 0 l -6.215,-3.314 c -19.338,-8.565 -35.496,-7.187 -48.477,4.142 v 0 c -10.5,9.116 -14.366,20.303 -11.601,33.562 v 0 c 3.036,15.745 15.052,27.067 36.046,33.974 v 0 c -5.251,8.288 -12.294,13.53 -21.13,15.745 v 0 c -8.844,2.209 -17.817,1.308 -26.932,-2.693 v 0 c -9.115,-4.008 -17.816,-9.601 -26.103,-16.781 v 0 c -8.287,-7.185 -15.122,-16.093 -20.508,-26.724 v 0 c -5.387,-10.635 -8.079,-21.479 -8.079,-32.524 v 0 c 0,-14.644 3.522,-28.104 10.565,-40.398 v 0 c 7.042,-12.286 16.223,-22.231 27.552,-29.831 v 0 c 11.323,-7.595 24.445,-12.566 39.361,-14.916 v 0 c 14.917,-2.344 29.831,-1.793 44.748,1.657 v 0 c 14.916,3.458 29.897,10.98 44.953,22.581 v 0 c 15.055,11.601 27.97,26.795 38.742,45.576 v 0 c 8.837,14.917 17.401,32.661 25.687,53.242 v 0 c 8.288,20.573 15.331,39.84 21.131,57.798 v 0 c 5.801,17.953 11.53,35.354 17.194,52.206 v 0 c 5.659,16.844 11.459,31.139 17.402,42.883 v 0 c 5.937,11.737 11.809,19.402 17.61,22.995 v 0 c -5.211,2.524 -10.332,3.787 -15.363,3.787 v 0 c -3.769,0 -7.488,-0.709 -11.155,-2.129" /></clipPath><linearGradient
       id="linearGradient132"
       spreadMethod="pad"
       gradientTransform="matrix(0,-445.83762,-445.83762,0,1203.1005,1569.7402)"
       gradientUnits="userSpaceOnUse"
       y2="0"
       x2="1"
       y1="0"
       x1="0"><stop
         id="stop126"
         offset="0"
         style="stop-opacity:1;stop-color:#f15a24" /><stop
         id="stop128"
         offset="0.998533"
         style="stop-opacity:1;stop-color:#ffff00" /><stop
         id="stop130"
         offset="1"
         style="stop-opacity:1;stop-color:#ffff00" /></linearGradient><clipPath
       id="clipPath142"
       clipPathUnits="userSpaceOnUse"><path
         id="path140"
         d="M 0,1920 H 1920 V 0 H 0 Z" /></clipPath><clipPath
       id="clipPath154"
       clipPathUnits="userSpaceOnUse"><path
         id="path152"
         d="m 1663.325,1528.918 c -9.257,-1.244 -17.131,-5.043 -23.618,-11.394 v 0 c -6.492,-6.357 -12.085,-14.916 -16.779,-25.689 v 0 c -6.909,-16.851 -14.645,-40.882 -23.203,-72.092 v 0 h -6.215 c -4.972,0 -8.429,-0.415 -10.359,-1.243 v 0 c -1.934,-0.828 -3.314,-2.143 -4.142,-3.936 v 0 c -0.828,-1.801 -1.937,-5.594 -3.315,-11.394 v 0 c -0.557,-2.765 -1.107,-4.836 -1.658,-6.216 v 0 h 19.887 c -5.249,-20.994 -10.085,-41.296 -14.501,-60.905 v 0 l -13.672,-60.079 c -0.762,-3.195 -1.263,-6.264 -1.516,-9.213 v 0 c -3.959,-6.617 -7.737,-10.038 -11.325,-10.26 v 0 c -6.08,-0.278 -6.775,9.666 -2.074,29.832 v 0 c 2.759,11.601 6.559,27.617 11.396,48.061 v 0 c 4.828,20.438 8.213,35.076 10.15,43.919 v 0 c -11.602,4.973 -22.167,6.63 -31.696,4.973 v 0 c -9.529,-1.658 -16.644,-7.6 -21.338,-17.816 v 0 c -6.908,10.772 -17.13,16.158 -30.661,16.158 v 0 c -5.25,0 -10.636,-0.97 -16.159,-2.9 v 0 c -19.058,-6.629 -34.53,-22.787 -46.404,-48.476 v 0 c -11.602,-25.967 -15.053,-49.72 -10.358,-71.264 v 0 c 4.694,-21.546 16.988,-32.318 36.876,-32.318 v 0 c 16.571,0 31.76,8.007 45.575,24.031 v 0 c 2.486,-7.187 6.693,-13.052 12.636,-17.609 v 0 c 5.938,-4.557 12.703,-7.043 20.304,-7.459 v 0 c 7.593,-0.413 15.188,1.037 22.788,4.351 v 0 c 5.57,2.431 10.843,6.465 15.821,12.092 v 0 c 2.182,-3.366 4.984,-6.431 8.416,-9.192 v 0 c 11.872,-9.387 25.273,-11.187 40.189,-5.386 v 0 c 9.843,3.692 18.061,9.992 24.657,18.894 v 0 c 1.854,-2.711 3.989,-5.282 6.416,-7.707 v 0 c 9.387,-9.394 22.373,-13.945 38.945,-13.673 v 0 c 13.532,0.278 26.033,2.83 37.499,7.665 v 0 c 11.458,4.83 21.338,11.601 29.622,20.302 v 0 c 8.288,8.702 14.64,18.853 19.061,30.453 v 0 c 2.207,6.351 6.351,22.096 12.43,47.233 v 0 c -1.386,0 -3.178,0.066 -5.386,0.209 v 0 c -2.216,0.135 -3.665,0.206 -4.352,0.206 v 0 c -0.691,0 -1.728,-0.071 -3.106,-0.206 v 0 c -1.386,-0.143 -2.214,-0.279 -2.486,-0.415 v 0 c -0.278,-0.142 -0.83,-0.414 -1.658,-0.828 v 0 c -0.828,-0.415 -1.314,-0.829 -1.451,-1.244 v 0 c -0.141,-0.415 -0.484,-1.107 -1.036,-2.072 v 0 c -0.555,-0.97 -0.971,-1.935 -1.241,-2.899 v 0 c -0.279,-0.972 -0.558,-2.144 -0.83,-3.523 v 0 c -2.764,-12.158 -6.908,-22.517 -12.429,-31.076 v 0 c -4.699,-7.457 -9.88,-13.607 -15.538,-18.435 v 0 c -5.665,-4.837 -11.05,-8.079 -16.158,-9.737 v 0 c -5.115,-1.657 -9.944,-2.072 -14.501,-1.244 v 0 c -4.558,0.829 -8.358,3.172 -11.395,7.044 v 0 c -3.043,3.865 -10.637,17.952 -12.843,20.716 v 0 c 5.798,-1.657 9.942,-2.485 12.429,-2.485 v 0 c 13.531,-0.279 25.895,6.072 37.081,19.059 v 0 c 11.188,12.98 16.503,26.374 15.953,40.189 v 0 c -0.278,4.972 -1.451,9.873 -3.522,14.71 v 0 c -2.071,4.829 -4.908,9.18 -8.494,13.05 v 0 c -3.593,3.866 -7.943,6.694 -13.052,8.494 v 0 c -5.113,1.793 -10.635,2.415 -16.573,1.865 v 0 c -5.941,-0.557 -12.636,-3.108 -20.095,-7.666 v 0 c -7.457,-4.558 -14.914,-10.842 -22.374,-18.852 v 0 c -10.22,-11.05 -17.959,-24.102 -23.202,-39.153 v 0 c -5.243,-15.059 -7.458,-29.418 -6.628,-43.09 v 0 c 0.079,-1.31 0.21,-2.593 0.368,-3.863 v 0 c -4.269,-8.939 -8.532,-13.661 -12.796,-14.161 v 0 c -5.802,-0.557 -6.909,7.873 -3.315,25.274 v 0 l 1.243,6.215 c 12.152,54.135 25.588,110.553 25.588,110.553 v 0 c 0,0 20.401,0.416 22.06,1.938 v 0 c 1.657,1.514 3.314,6.279 4.971,14.293 v 0 c 0.551,2.486 0.965,4.558 1.243,6.216 v 0 h -22.374 c 8.287,30.66 16.019,54.691 23.202,72.092 v 0 c 5.245,12.702 11.739,22.232 19.475,28.589 v 0 c -9.366,5.85 -18.087,8.778 -26.16,8.778 v 0 c -1.452,0 -2.883,-0.094 -4.293,-0.284 M 1470.87,1271.413 c -2.765,11.602 -0.693,28.033 6.214,49.306 v 0 c 6.903,21.815 14.639,32.732 23.203,32.732 v 0 c 3.588,-0.279 6.074,-2.765 7.459,-7.459 v 0 c 2.758,-11.88 -0.278,-29.003 -9.116,-51.377 v 0 c -7.736,-19.887 -14.916,-29.832 -21.546,-29.832 v 0 c -3.042,0 -5.112,2.208 -6.214,6.63 m 222.906,43.918 c 4.414,12.981 9.53,22.511 15.329,28.589 v 0 c 6.352,7.181 11.602,8.424 15.746,3.729 v 0 c 3.586,-4.421 3.864,-10.222 0.828,-17.401 v 0 c -4.519,-10.045 -13.721,-15.068 -27.596,-15.068 v 0 c -1.389,0 -2.824,0.05 -4.307,0.151" /></clipPath><linearGradient
       id="linearGradient166"
       spreadMethod="pad"
       gradientTransform="matrix(0,-305.02948,-305.02948,0,1600.3679,1529.2024)"
       gradientUnits="userSpaceOnUse"
       y2="0"
       x2="1"
       y1="0"
       x1="0"><stop
         id="stop160"
         offset="0"
         style="stop-opacity:1;stop-color:#f15a24" /><stop
         id="stop162"
         offset="0.998533"
         style="stop-opacity:1;stop-color:#ffff00" /><stop
         id="stop164"
         offset="1"
         style="stop-opacity:1;stop-color:#ffff00" /></linearGradient><clipPath
       id="clipPath176"
       clipPathUnits="userSpaceOnUse"><path
         id="path174"
         d="M 0,1920 H 1920 V 0 H 0 Z" /></clipPath></defs><g
     transform="matrix(1.3333333,0,0,-1.3333333,0,2560)"
     id="g10"><g
       id="g12"><g
         clip-path="url(#clipPath18)"
         id="g14"><g
           id="g20"><g
             id="g22"><path
               id="path32"
               style="fill:url(#linearGradient30);stroke:none"
               d="m 307.961,1541.349 c -39.09,-20.303 -72.993,-47.721 -101.718,-82.245 v 0 c -28.731,-34.532 -49.305,-72.507 -61.735,-113.941 v 0 c -9.394,-31.217 -12.701,-60.149 -9.944,-86.801 v 0 c 2.758,-26.659 10.909,-50.477 24.446,-71.472 v 0 c 10.494,-16.294 24.237,-29.968 41.226,-41.019 v 0 c 16.986,-11.045 35.075,-18.851 54.277,-23.409 v 0 c 19.194,-4.558 39.425,-6.35 60.698,-5.386 v 0 c 21.267,0.971 41.498,4.493 60.699,10.565 v 0 c 19.196,6.079 37.083,15.123 53.655,27.139 v 0 c 16.574,12.015 29.97,26.173 40.191,42.469 v 0 c 10.773,18.508 15.602,35.767 14.502,51.791 v 0 c -1.108,16.016 -6.773,29.138 -16.988,39.36 v 0 c -12.709,12.153 -29.21,17.402 -49.512,15.746 v 0 c -20.302,-1.658 -35.289,-9.116 -44.955,-22.374 v 0 c 24.581,-12.431 34.388,-31.075 29.418,-55.934 v 0 c -3.044,-14.639 -8.43,-27.482 -16.159,-38.533 v 0 c -7.736,-11.045 -16.716,-19.539 -26.931,-25.482 v 0 c -10.223,-5.936 -21.481,-9.387 -33.768,-10.358 v 0 c -12.294,-0.964 -24.31,0.556 -36.047,4.557 v 0 c -11.744,4.008 -23.202,11.187 -34.389,21.546 v 0 c -11.188,10.359 -20.652,23.273 -28.383,38.739 v 0 c -9.113,18.781 -14.229,38.184 -15.329,58.214 v 0 c -1.107,20.024 1.1,38.803 6.629,56.349 v 0 c 5.523,17.537 13.395,34.596 23.617,51.169 v 0 c 10.215,16.574 21.475,31.21 33.769,43.918 v 0 c 12.286,12.702 25.201,23.753 38.739,33.147 v 0 c 24.581,17.401 55.934,29.275 94.052,35.633 v 0 c 16.017,2.757 30.039,3.864 42.055,3.314 v 0 c 12.015,-0.557 21.337,-2.628 27.966,-6.216 v 0 c 6.63,-3.593 11.458,-7.872 14.502,-12.843 v 0 c 3.037,-4.973 3.794,-10.638 2.279,-16.988 v 0 c -1.52,-6.358 -4.557,-12.573 -9.115,-18.645 v 0 c -4.557,-6.078 -11.187,-12.015 -19.888,-17.816 v 0 c -8.7,-5.8 -18.579,-10.636 -29.625,-14.501 v 0 c -10.222,-3.593 -19.472,-5.943 -27.76,-7.044 v 0 c -8.286,-1.107 -15.473,-1.45 -21.545,-1.036 v 0 c -6.079,0.415 -13.051,2.416 -20.924,6.008 v 0 c -7.87,3.586 -14.229,6.902 -19.057,9.944 v 0 c -4.837,3.037 -12.503,8.008 -22.996,14.916 v 0 c -8.015,-16.023 -12.637,-30.868 -13.881,-44.54 v 0 c -1.243,-13.674 0.415,-25.003 4.972,-33.976 v 0 c 4.557,-8.978 11.459,-16.229 20.718,-21.752 v 0 c 9.25,-5.528 19.815,-8.772 31.696,-9.737 v 0 c 11.873,-0.97 24.923,0.48 39.153,4.351 v 0 c 14.222,3.865 28.381,9.945 42.468,18.23 v 0 c 13.531,8.287 25.753,18.023 36.669,29.21 v 0 c 10.908,11.188 19.889,22.79 26.931,34.805 v 0 c 7.043,12.015 12.358,24.444 15.952,37.289 v 0 c 3.587,12.843 5.315,25.132 5.178,36.874 v 0 c -0.142,11.739 -2.485,22.925 -7.043,33.562 v 0 c -4.557,10.63 -11.051,19.887 -19.473,27.761 v 0 c -8.428,7.872 -19.473,14.15 -33.147,18.851 v 0 c -13.672,4.694 -29.352,7.043 -47.026,7.043 v 0 c -40.331,0 -80.037,-10.151 -119.119,-30.452" /></g></g></g></g><g
       id="g34"><g
         clip-path="url(#clipPath40)"
         id="g36"><g
           transform="translate(144.5083,1345.1631)"
           id="g42"><path
             id="path44"
             style="fill:none;stroke:#000000;stroke-width:6;stroke-linecap:butt;stroke-linejoin:miter;stroke-miterlimit:10;stroke-dasharray:none;stroke-opacity:1"
             d="m 0,0 c 12.43,41.434 33.004,79.409 61.735,113.941 28.725,34.524 62.628,61.942 101.718,82.245 39.082,20.301 78.787,30.453 119.118,30.453 17.675,0 33.355,-2.35 47.027,-7.044 13.673,-4.7 24.718,-10.979 33.146,-18.852 8.423,-7.872 14.917,-17.13 19.473,-27.76 4.558,-10.637 6.902,-21.823 7.044,-33.562 0.137,-11.742 -1.592,-24.03 -5.179,-36.874 C 380.489,89.702 375.174,77.273 368.13,65.258 361.088,53.242 352.108,41.641 341.2,30.453 330.284,19.266 318.062,9.53 304.531,1.243 c -14.087,-8.285 -28.246,-14.365 -42.468,-18.23 -14.23,-3.871 -27.28,-5.321 -39.154,-4.351 -11.88,0.965 -22.446,4.209 -31.696,9.737 -9.258,5.523 -16.16,12.774 -20.716,21.753 -4.558,8.972 -6.216,20.301 -4.973,33.975 1.243,13.672 5.866,28.517 13.88,44.54 10.494,-6.908 18.159,-11.879 22.996,-14.917 4.829,-3.042 11.187,-6.356 19.058,-9.943 7.873,-3.592 14.845,-5.593 20.924,-6.008 6.073,-0.414 13.259,-0.07 21.545,1.036 8.287,1.101 17.537,3.451 27.76,7.044 11.045,3.865 20.924,8.701 29.625,14.501 8.701,5.801 15.33,11.738 19.888,17.816 4.558,6.072 7.594,12.288 9.114,18.645 1.516,6.35 0.758,12.015 -2.278,16.988 -3.044,4.971 -7.872,9.25 -14.502,12.843 -6.629,3.588 -15.951,5.659 -27.967,6.216 -12.015,0.55 -26.038,-0.557 -42.054,-3.314 C 225.394,143.216 194.042,131.342 169.46,113.941 155.923,104.547 143.007,93.496 130.721,80.794 118.427,68.086 107.168,53.449 96.953,36.876 86.73,20.303 78.858,3.244 73.335,-14.293 67.807,-31.839 65.6,-50.618 66.707,-70.643 c 1.1,-20.029 6.215,-39.432 15.329,-58.213 7.731,-15.466 17.195,-28.38 28.382,-38.739 11.187,-10.359 22.645,-17.538 34.39,-21.546 11.736,-4.001 23.752,-5.521 36.046,-4.557 12.288,0.971 23.545,4.422 33.768,10.358 10.216,5.943 19.196,14.437 26.932,25.482 7.729,11.051 13.115,23.894 16.158,38.532 4.972,24.86 -4.836,43.504 -29.417,55.934 9.666,13.259 24.653,20.717 44.954,22.374 20.303,1.657 36.804,-3.592 49.513,-15.744 10.215,-10.223 15.88,-23.345 16.988,-39.361 1.1,-16.023 -3.729,-33.283 -14.502,-51.791 -10.222,-16.296 -23.617,-30.454 -40.19,-42.469 -16.574,-12.015 -34.46,-21.06 -53.656,-27.138 -19.202,-6.073 -39.433,-9.596 -60.699,-10.566 -21.273,-0.965 -41.504,0.828 -60.698,5.386 -19.202,4.558 -37.291,12.364 -54.277,23.409 -16.989,11.051 -30.732,24.725 -41.226,41.019 C 0.965,-137.278 -7.186,-113.46 -9.944,-86.801 -12.701,-60.149 -9.394,-31.217 0,0 Z" /></g></g></g><g
       id="g46"><g
         clip-path="url(#clipPath52)"
         id="g48"><g
           id="g54"><g
             id="g56"><path
               id="path66"
               style="fill:url(#linearGradient64);stroke:none"
               d="m 905.002,1528.918 c -9.258,-1.244 -17.13,-5.043 -23.618,-11.394 v 0 c -6.492,-6.357 -12.085,-14.916 -16.779,-25.689 v 0 c -6.909,-16.851 -14.644,-40.882 -23.203,-72.092 v 0 h -6.214 c -4.973,0 -8.43,-0.415 -10.359,-1.243 v 0 c -1.935,-0.828 -3.314,-2.143 -4.143,-3.936 v 0 c -0.828,-1.801 -1.936,-5.594 -3.314,-11.394 v 0 c -0.557,-2.765 -1.107,-4.836 -1.659,-6.216 v 0 h 19.888 c -5.249,-20.994 -10.086,-41.296 -14.501,-60.905 v 0 l -13.672,-60.079 c -0.763,-3.195 -1.264,-6.264 -1.516,-9.213 v 0 c -3.96,-6.617 -7.738,-10.038 -11.326,-10.26 v 0 c -6.08,-0.278 -6.774,9.666 -2.073,29.832 v 0 c 2.758,11.601 6.558,27.617 11.395,48.061 v 0 c 4.828,20.438 8.213,35.076 10.151,43.919 v 0 c -11.603,4.973 -22.168,6.63 -31.697,4.973 v 0 c -9.529,-1.658 -16.644,-7.6 -21.338,-17.816 v 0 c -6.908,10.772 -17.13,16.158 -30.66,16.158 v 0 c -5.251,0 -10.638,-0.97 -16.16,-2.9 v 0 c -19.058,-6.629 -34.53,-22.787 -46.403,-48.476 v 0 c -9.644,-21.584 -13.65,-41.637 -12.034,-60.164 v 0 c -4.416,-8.799 -8.827,-13.331 -13.239,-13.587 v 0 c -6.078,-0.557 -6.772,9.387 -2.071,29.832 v 0 c 7.457,30.382 11.323,47.091 11.602,50.133 v 0 c 1.378,7.458 0.893,14.502 -1.452,21.131 v 0 c -2.35,6.63 -6.007,11.873 -10.979,15.745 v 0 c -4.972,3.865 -10.637,6.694 -16.987,8.494 v 0 c -6.357,1.793 -13.193,2 -20.51,0.62 v 0 c -7.321,-1.385 -14.022,-4.285 -20.095,-8.701 v 0 c 12.981,53.586 24.583,92.947 34.805,118.084 v 0 c 4.971,12.43 11.458,21.96 19.472,28.589 v 0 c -11.05,6.902 -21.201,9.737 -30.453,8.494 v 0 c -9.257,-1.244 -17.194,-5.043 -23.824,-11.394 v 0 c -6.629,-6.357 -12.157,-14.916 -16.572,-25.689 v 0 c -3.042,-7.735 -6.215,-16.436 -9.529,-26.101 v 0 c -3.315,-9.674 -6.63,-20.717 -9.945,-33.147 v 0 c -3.314,-12.43 -6.214,-23.274 -8.701,-32.525 v 0 c -2.486,-9.258 -5.528,-21.688 -9.115,-37.289 v 0 c -3.594,-15.609 -6.15,-26.724 -7.664,-33.353 v 0 c -1.522,-6.63 -4.08,-18.167 -7.667,-34.597 v 0 c -3.584,-16.438 -5.658,-25.895 -6.213,-28.382 v 0 c -3.588,-15.472 -1.658,-26.174 5.799,-32.111 v 0 c 7.46,-5.942 19.475,-8.907 36.047,-8.907 v 0 c 1.657,7.457 5.109,22.509 10.358,45.161 v 0 c 5.244,22.646 9.252,40.191 12.015,52.619 v 0 c 1.101,4.695 2.902,9.252 5.386,13.674 v 0 c 5.523,9.944 11.324,15.052 17.404,15.33 v 0 c 5.522,0.55 7.593,-4.836 6.214,-16.158 v 0 c -0.557,-5.53 -1.592,-11.603 -3.108,-18.231 v 0 c -1.52,-6.63 -3.315,-14.159 -5.387,-22.581 v 0 c -2.07,-8.429 -3.52,-14.572 -4.348,-18.439 v 0 c -3.594,-14.643 -1.451,-26.865 6.42,-36.667 v 0 c 7.873,-9.808 18.16,-14.708 30.868,-14.708 v 0 c 11.874,0 22.924,4.828 33.147,14.502 v 0 c 1.685,1.594 3.29,3.319 4.817,5.169 v 0 c 6.356,-12.282 17.04,-18.428 32.056,-18.428 v 0 c 16.571,0 31.76,8.007 45.575,24.031 v 0 c 2.486,-7.187 6.694,-13.052 12.638,-17.609 v 0 c 5.936,-4.557 12.7,-7.043 20.302,-7.459 v 0 c 7.594,-0.413 15.187,1.037 22.788,4.351 v 0 c 5.57,2.431 10.843,6.465 15.822,12.092 v 0 c 2.181,-3.366 4.983,-6.431 8.415,-9.192 v 0 c 11.872,-9.387 25.273,-11.187 40.189,-5.386 v 0 c 19.888,7.457 33.146,25.546 39.776,54.278 v 0 c 4.693,19.887 8.559,36.182 11.602,48.889 v 0 c -1.387,0 -3.18,0.137 -5.388,0.415 v 0 c -6.357,0 -10.357,-0.485 -12.016,-1.449 v 0 c -1.656,-0.971 -3.042,-4.215 -4.142,-9.738 v 0 c -3.872,-16.022 -6.63,-28.037 -8.286,-36.046 v 0 c -1.109,-4.143 -2.486,-8.015 -4.145,-11.6 v 0 c -4.699,-10.774 -9.393,-16.439 -14.086,-16.989 v 0 c -5.802,-0.557 -6.909,7.873 -3.315,25.274 v 0 l 1.243,6.215 c 12.152,54.135 21.529,94.688 25.672,111.261 v 0 c 0,0 20.318,-0.292 21.977,1.23 v 0 c 1.656,1.514 3.314,6.279 4.97,14.293 v 0 c 0.552,2.486 0.965,4.558 1.243,6.216 v 0 h -22.374 c 8.288,30.66 16.018,54.691 23.203,72.092 v 0 c 5.244,12.702 11.738,22.232 19.475,28.589 v 0 c -9.367,5.85 -18.088,8.778 -26.161,8.778 v 0 c -1.452,0 -2.882,-0.094 -4.293,-0.284 M 712.548,1271.413 c -2.766,11.602 -0.694,28.033 6.215,49.306 v 0 c 6.901,21.815 14.637,32.732 23.201,32.732 v 0 c 3.588,-0.279 6.074,-2.765 7.46,-7.459 v 0 c 2.757,-11.88 -0.279,-29.003 -9.116,-51.377 v 0 c -7.736,-19.887 -14.916,-29.832 -21.545,-29.832 v 0 c -3.043,0 -5.114,2.208 -6.215,6.63" /></g></g></g></g><g
       id="g68"><g
         clip-path="url(#clipPath74)"
         id="g70"><g
           transform="translate(740.3081,1294.6152)"
           id="g76"><path
             id="path78"
             style="fill:none;stroke:#000000;stroke-width:6;stroke-linecap:butt;stroke-linejoin:miter;stroke-miterlimit:10;stroke-dasharray:none;stroke-opacity:1"
             d="m 0,0 c -7.736,-19.888 -14.917,-29.832 -21.546,-29.832 -3.042,0 -5.114,2.208 -6.214,6.629 -2.765,11.602 -0.694,28.034 6.214,49.307 6.902,21.815 14.638,32.731 23.202,32.731 C 5.244,58.557 7.73,56.07 9.116,51.377 11.873,39.497 8.837,22.374 0,0 Z m 164.694,234.303 c -9.258,-1.243 -17.131,-5.043 -23.617,-11.394 -6.494,-6.358 -12.086,-14.916 -16.78,-25.689 -6.908,-16.851 -14.644,-40.882 -23.203,-72.092 H 94.88 c -4.973,0 -8.43,-0.415 -10.359,-1.243 -1.935,-0.828 -3.314,-2.143 -4.143,-3.936 -0.828,-1.801 -1.937,-5.595 -3.315,-11.394 -0.557,-2.765 -1.106,-4.837 -1.658,-6.216 H 95.293 C 90.043,81.344 85.207,61.043 80.792,41.434 L 67.12,-18.645 c -0.763,-3.195 -1.264,-6.264 -1.516,-9.213 -3.96,-6.617 -7.738,-10.039 -11.327,-10.26 -6.079,-0.278 -6.773,9.666 -2.072,29.832 2.758,11.6 6.558,27.617 11.395,48.061 4.829,20.438 8.213,35.076 10.15,43.919 -11.602,4.973 -22.167,6.63 -31.696,4.973 C 32.525,87.009 25.41,81.066 20.716,70.851 13.808,81.623 3.586,87.009 -9.944,87.009 c -5.251,0 -10.638,-0.97 -16.16,-2.9 -19.058,-6.629 -34.53,-22.787 -46.403,-48.476 -9.644,-21.585 -13.65,-41.637 -12.034,-60.165 -4.416,-8.798 -8.828,-13.331 -13.239,-13.586 -6.078,-0.557 -6.771,9.387 -2.071,29.832 7.457,30.382 11.323,47.091 11.601,50.133 1.379,7.458 0.894,14.502 -1.451,21.131 -2.35,6.629 -6.007,11.873 -10.979,15.745 -4.972,3.864 -10.637,6.694 -16.987,8.494 -6.357,1.793 -13.193,2 -20.51,0.62 -7.321,-1.385 -14.022,-4.285 -20.094,-8.701 12.979,53.586 24.582,92.947 34.804,118.084 4.971,12.43 11.458,21.96 19.473,28.589 -11.051,6.902 -21.202,9.737 -30.454,8.494 -9.258,-1.243 -17.194,-5.043 -23.823,-11.394 -6.63,-6.358 -12.158,-14.916 -16.574,-25.689 -3.042,-7.736 -6.214,-16.436 -9.529,-26.102 -3.314,-9.673 -6.629,-20.716 -9.944,-33.146 -3.314,-12.43 -6.214,-23.275 -8.701,-32.525 -2.486,-9.258 -5.528,-21.688 -9.115,-37.289 -3.594,-15.609 -6.15,-26.724 -7.664,-33.354 -1.522,-6.629 -4.08,-18.166 -7.666,-34.596 -3.586,-16.438 -5.659,-25.895 -6.215,-28.382 -3.587,-15.472 -1.657,-26.174 5.8,-32.111 7.459,-5.942 19.474,-8.907 36.047,-8.907 1.657,7.457 5.108,22.508 10.358,45.161 5.244,22.646 9.252,40.191 12.016,52.619 1.1,4.695 2.9,9.252 5.385,13.674 5.523,9.944 11.324,15.051 17.404,15.33 5.522,0.55 7.593,-4.836 6.214,-16.158 -0.557,-5.53 -1.592,-11.602 -3.108,-18.231 -1.52,-6.63 -3.315,-14.159 -5.386,-22.581 -2.072,-8.429 -3.522,-14.573 -4.35,-18.438 -3.593,-14.644 -1.45,-26.867 6.421,-36.668 7.873,-9.808 18.16,-14.708 30.868,-14.708 11.874,0 22.925,4.828 33.147,14.501 1.685,1.595 3.29,3.32 4.818,5.17 6.355,-12.283 17.039,-18.428 32.055,-18.428 16.572,0 31.76,8.007 45.575,24.031 2.486,-7.187 6.694,-13.053 12.637,-17.609 5.937,-4.557 12.701,-7.044 20.303,-7.459 7.594,-0.413 15.187,1.037 22.788,4.351 5.57,2.431 10.843,6.465 15.821,12.092 2.182,-3.366 4.984,-6.432 8.416,-9.192 11.873,-9.387 25.274,-11.187 40.189,-5.386 19.888,7.457 33.146,25.546 39.776,54.277 4.693,19.888 8.558,36.183 11.602,48.89 -1.388,0 -3.18,0.137 -5.388,0.415 -6.356,0 -10.357,-0.485 -12.016,-1.45 -1.656,-0.97 -3.042,-4.215 -4.142,-9.737 -3.872,-16.022 -6.63,-28.038 -8.286,-36.046 -1.109,-4.143 -2.487,-8.015 -4.145,-11.601 -4.7,-10.773 -9.392,-16.438 -14.086,-16.988 -5.802,-0.557 -6.908,7.873 -3.315,25.274 l 1.243,6.214 c 12.152,54.136 21.529,94.689 25.672,111.262 0,0 20.318,-0.292 21.976,1.23 1.657,1.514 3.315,6.278 4.972,14.293 0.551,2.486 0.964,4.558 1.243,6.216 H 152.47 c 8.288,30.66 16.018,54.691 23.203,72.092 5.244,12.702 11.738,22.232 19.474,28.589 -11.05,6.902 -21.203,9.737 -30.453,8.494 z" /></g></g></g><g
       id="g80"><g
         clip-path="url(#clipPath86)"
         id="g82"><g
           id="g88"><g
             id="g90"><path
               id="path100"
               style="fill:url(#linearGradient98);stroke:none"
               d="m 991.651,1443.239 c -5.802,-0.142 -11.33,-2.835 -16.574,-8.079 v 0 c -8.564,-8.566 -16.716,-24.032 -24.446,-46.405 v 0 c -22.101,-1.658 -37.432,-6.358 -45.99,-14.087 v 0 c -4.142,-3.593 -7.25,-6.422 -9.322,-8.494 v 0 c -2.072,-2.071 -4.079,-5.179 -6.007,-9.322 v 0 c -1.936,-4.145 -2.487,-8.429 -1.659,-12.845 v 0 c 10.774,4.416 28.725,7.73 53.864,9.944 v 0 c -3.315,-20.716 -2.487,-36.188 2.485,-46.405 v 0 c 2.208,-4.422 4.072,-7.943 5.594,-10.564 v 0 c 1.515,-2.628 4.001,-5.388 7.459,-8.287 v 0 c 3.45,-2.9 7.387,-4.629 11.808,-5.18 v 0 c -1.937,15.467 0.828,39.498 8.285,72.094 v 0 c 34.248,0 55.935,-3.872 65.05,-11.602 v 0 c 5.245,7.459 7.044,14.016 5.386,19.681 v 0 c -1.656,5.658 -5.664,10.287 -12.014,13.88 v 0 c -10.502,6.072 -27.075,9.944 -49.721,11.601 v 0 c 7.459,23.754 15.188,38.255 23.203,43.505 v 0 c -5.692,7.045 -11.384,10.569 -17.076,10.569 v 0 c -0.109,0 -0.217,-10e-4 -0.325,0" /></g></g></g></g><g
       id="g102"><g
         clip-path="url(#clipPath108)"
         id="g104"><g
           transform="translate(941.5171,1353.9507)"
           id="g110"><path
             id="path112"
             style="fill:none;stroke:#000000;stroke-width:6;stroke-linecap:butt;stroke-linejoin:miter;stroke-miterlimit:10;stroke-dasharray:none;stroke-opacity:1"
             d="m 0,0 c -25.139,-2.213 -43.09,-5.528 -53.864,-9.944 -0.828,4.416 -0.277,8.701 1.658,12.845 1.93,4.143 3.936,7.251 6.008,9.323 2.072,2.071 5.179,4.901 9.322,8.494 8.559,7.729 23.889,12.428 45.99,14.087 7.731,22.372 15.882,37.839 24.446,46.404 5.244,5.245 10.773,7.937 16.573,8.08 5.801,0.136 11.602,-3.387 17.402,-10.566 C 59.52,73.474 51.792,58.972 44.333,35.218 66.978,33.562 83.55,29.69 94.052,23.618 c 6.351,-3.594 10.359,-8.222 12.015,-13.881 1.658,-5.664 -0.142,-12.222 -5.386,-19.681 -9.115,7.731 -30.803,11.602 -65.05,11.602 -7.457,-32.596 -10.222,-56.627 -8.286,-72.094 -4.421,0.552 -8.357,2.28 -11.808,5.18 -3.457,2.9 -5.943,5.659 -7.458,8.287 -1.521,2.621 -3.386,6.143 -5.594,10.564 C -2.486,-36.188 -3.314,-20.716 0,0 Z" /></g></g></g><g
       id="g114"><g
         clip-path="url(#clipPath120)"
         id="g116"><g
           id="g122"><g
             id="g124"><path
               id="path134"
               style="fill:url(#linearGradient132);stroke:none"
               d="m 1159.984,1563.101 c -17.131,-3.594 -33.353,-9.531 -48.683,-17.816 v 0 c -15.331,-8.288 -28.525,-18.374 -39.569,-30.247 v 0 c -11.051,-11.879 -19.267,-24.652 -24.653,-38.325 v 0 c -5.386,-13.673 -6.629,-28.381 -3.73,-44.126 v 0 c 2.902,-15.745 10.287,-30.939 22.168,-45.577 v 0 c 10.773,-12.428 23.889,-20.716 39.361,-24.859 v 0 c 15.466,-4.143 33.975,-3.178 55.521,2.9 v 0 c -11.329,5.801 -20.445,12.016 -27.348,18.645 v 0 c -19.057,18.23 -22.101,37.976 -9.114,59.25 v 0 c 11.601,19.33 32.175,33.975 61.736,43.918 v 0 c 39.497,13.53 78.994,13.259 118.497,-0.829 v 0 c 19.331,-6.907 34.805,-16.094 46.405,-27.553 v 0 c 11.601,-11.466 18.437,-23.409 20.509,-35.839 v 0 c 2.072,-12.43 -1.522,-25.003 -10.772,-37.704 v 0 c -9.257,-12.707 -28.249,-29.561 -40.036,-31.565 v 0 c -11.789,-2.004 -26.95,-5.31 -34.543,-6.14 v 0 c -7.602,-0.828 -14.78,-2.142 -21.545,-3.935 v 0 c -6.772,-1.799 -12.501,-4.492 -17.195,-8.08 v 0 c -4.701,-3.593 -7.323,-7.871 -7.873,-12.844 v 0 c -0.828,-6.629 2.624,-12.158 10.36,-16.573 v 0 c 7.728,-4.421 17.672,-5.943 29.83,-4.558 v 0 c 13.531,1.658 25.132,5.659 34.804,12.015 v 0 c 16.844,-3.592 30.381,-9.671 40.604,-18.229 v 0 c 10.217,-8.566 16.43,-17.888 18.644,-27.967 v 0 c 2.208,-10.086 2.138,-20.238 -0.206,-30.453 v 0 c -2.351,-10.223 -7.458,-19.473 -15.33,-27.761 v 0 c -7.873,-8.286 -17.337,-14.222 -28.382,-17.816 v 0 c -7.736,-2.758 -15.888,-4.143 -24.446,-4.143 v 0 c -8.564,0 -16.715,1.107 -24.445,3.315 v 0 c -7.737,2.213 -15.122,5.458 -22.167,9.737 v 0 c -7.042,4.285 -12.843,9.601 -17.4,15.952 v 0 c -4.558,6.356 -7.81,13.601 -9.738,21.751 v 0 c -1.935,8.145 -1.799,17.052 0.415,26.725 v 0 c -14.917,-7.736 -26.246,-17.266 -33.975,-28.589 v 0 c -7.736,-11.323 -11.259,-22.647 -10.565,-33.976 v 0 c 0.685,-11.322 4.07,-22.23 10.151,-32.731 v 0 c 6.072,-10.494 15.602,-19.609 28.588,-27.346 v 0 c 12.98,-7.73 27.76,-12.98 44.333,-15.744 v 0 c 31.21,-4.972 60.007,-1.036 86.388,11.808 v 0 c 26.375,12.844 46.333,33.768 59.87,62.771 v 0 c 6.351,14.088 10.008,28.381 10.98,42.882 v 0 c 0.964,14.502 -0.763,28.104 -5.179,40.813 v 0 c -4.422,12.701 -12.222,23.888 -23.409,33.56 v 0 c -11.188,9.665 -25.068,16.43 -41.641,20.303 v 0 c 21.267,11.043 37.563,24.302 48.892,39.775 v 0 c 11.322,15.465 17.123,31.282 17.401,47.44 v 0 c 0.271,16.158 -2.971,32.175 -9.737,48.061 v 0 c -6.772,15.882 -17.265,30.518 -31.489,43.921 v 0 c -14.23,13.393 -30.453,24.237 -48.684,32.524 v 0 c -21.545,9.665 -47.997,15.88 -79.342,18.646 v 0 c -9.498,0.835 -18.999,1.252 -28.509,1.252 v 0 c -21.883,0 -43.802,-2.212 -65.752,-6.639 m 96.952,-98.196 c -8.564,-3.315 -16.301,-8.845 -23.202,-16.573 v 0 c -6.908,-7.736 -13.879,-17.752 -20.925,-30.04 v 0 c -7.041,-12.294 -13.535,-25.138 -19.472,-38.533 v 0 c -5.944,-13.401 -12.294,-27.28 -19.059,-41.638 v 0 c -6.772,-14.366 -13.259,-27.625 -19.474,-39.777 v 0 c -6.214,-12.157 -13.122,-23.202 -20.715,-33.146 v 0 c -7.6,-9.944 -15.124,-16.988 -22.581,-21.131 v 0 l -6.215,-3.314 c -19.338,-8.565 -35.496,-7.187 -48.477,4.142 v 0 c -10.5,9.116 -14.366,20.303 -11.601,33.562 v 0 c 3.036,15.745 15.052,27.067 36.046,33.974 v 0 c -5.251,8.288 -12.294,13.53 -21.13,15.745 v 0 c -8.844,2.209 -17.817,1.308 -26.932,-2.693 v 0 c -9.115,-4.008 -17.816,-9.601 -26.103,-16.781 v 0 c -8.287,-7.185 -15.122,-16.093 -20.508,-26.724 v 0 c -5.387,-10.635 -8.079,-21.479 -8.079,-32.524 v 0 c 0,-14.644 3.522,-28.104 10.565,-40.398 v 0 c 7.042,-12.286 16.223,-22.231 27.552,-29.831 v 0 c 11.323,-7.595 24.445,-12.566 39.361,-14.916 v 0 c 14.917,-2.344 29.831,-1.793 44.748,1.657 v 0 c 14.916,3.458 29.897,10.98 44.953,22.581 v 0 c 15.055,11.601 27.97,26.795 38.742,45.576 v 0 c 8.837,14.917 17.401,32.661 25.687,53.242 v 0 c 8.288,20.573 15.331,39.84 21.131,57.798 v 0 c 5.801,17.953 11.53,35.354 17.194,52.206 v 0 c 5.659,16.844 11.459,31.139 17.402,42.883 v 0 c 5.937,11.737 11.809,19.402 17.61,22.995 v 0 c -5.211,2.524 -10.332,3.787 -15.363,3.787 v 0 c -3.769,0 -7.488,-0.709 -11.155,-2.129" /></g></g></g></g><g
       id="g136"><g
         clip-path="url(#clipPath142)"
         id="g138"><g
           transform="translate(1160.3984,1365.0508)"
           id="g144"><path
             id="path146"
             style="fill:none;stroke:#000000;stroke-width:6;stroke-linecap:butt;stroke-linejoin:miter;stroke-miterlimit:10;stroke-dasharray:none;stroke-opacity:1"
             d="m 0,0 c -21.546,-6.078 -40.054,-7.042 -55.521,-2.899 -15.471,4.142 -28.587,12.43 -39.36,24.858 -11.881,14.639 -19.266,29.832 -22.168,45.577 -2.899,15.745 -1.656,30.453 3.73,44.126 5.386,13.673 13.601,26.446 24.652,38.325 11.045,11.873 24.239,21.96 39.569,30.247 15.33,8.286 31.553,14.223 48.684,17.816 31.488,6.351 62.906,8.144 94.26,5.387 31.345,-2.766 57.799,-8.98 79.342,-18.645 18.232,-8.288 34.455,-19.132 48.685,-32.525 14.224,-13.402 24.717,-28.039 31.488,-43.92 6.766,-15.886 10.009,-31.904 9.738,-48.062 C 262.82,44.127 257.02,28.31 245.697,12.845 234.368,-2.628 218.073,-15.887 196.806,-26.93 c 16.573,-3.872 30.453,-10.638 41.64,-20.303 11.188,-9.671 18.988,-20.858 23.409,-33.56 4.416,-12.709 6.144,-26.311 5.18,-40.812 -0.973,-14.502 -4.63,-28.795 -10.98,-42.882 -13.537,-29.004 -33.495,-49.928 -59.87,-62.772 -26.381,-12.844 -55.178,-16.78 -86.388,-11.808 -16.573,2.765 -31.354,8.014 -44.333,15.745 -12.986,7.736 -22.517,16.851 -28.589,27.345 -6.08,10.501 -9.465,21.41 -10.15,32.731 -0.694,11.33 2.829,22.653 10.565,33.976 7.729,11.323 19.058,20.853 33.975,28.589 -2.214,-9.673 -2.351,-18.58 -0.415,-26.725 1.928,-8.15 5.179,-15.395 9.737,-21.751 4.558,-6.351 10.358,-11.667 17.401,-15.952 7.044,-4.279 14.43,-7.523 22.167,-9.737 7.73,-2.208 15.88,-3.315 24.445,-3.315 8.558,0 16.71,1.386 24.446,4.143 11.045,3.594 20.509,9.531 28.382,17.817 7.872,8.287 12.979,17.537 15.33,27.76 2.344,10.215 2.414,20.367 0.206,30.453 -2.214,10.079 -8.428,19.402 -18.645,27.967 -10.222,8.559 -23.759,14.637 -40.603,18.23 -9.672,-6.356 -21.274,-10.357 -34.804,-12.015 -12.158,-1.386 -22.102,0.136 -29.831,4.557 -7.736,4.416 -11.187,9.944 -10.359,16.574 0.549,4.972 3.173,9.25 7.873,12.843 4.693,3.588 10.423,6.281 17.194,8.081 6.766,1.793 13.944,3.106 21.545,3.935 7.594,0.83 22.754,4.135 34.543,6.139 11.788,2.005 30.779,18.858 40.037,31.565 9.25,12.701 12.844,25.274 10.772,37.704 -2.072,12.43 -8.909,24.374 -20.509,35.84 -11.601,11.458 -27.074,20.646 -46.406,27.552 -39.502,14.088 -79,14.359 -118.497,0.829 C -4.286,111.87 -24.86,97.226 -36.461,77.895 -49.448,56.622 -46.404,36.876 -27.347,18.645 -20.444,12.016 -11.329,5.801 0,0 Z M 123.056,98.196 C 117.255,94.603 111.383,86.938 105.445,75.202 99.503,63.458 93.703,49.163 88.044,32.318 82.38,15.466 76.65,-1.935 70.85,-19.888 65.05,-37.846 58.006,-57.112 49.719,-77.687 c -8.286,-20.579 -16.851,-38.324 -25.688,-53.24 -10.772,-18.781 -23.687,-33.975 -38.741,-45.577 -15.057,-11.6 -30.038,-19.122 -44.953,-22.581 -14.917,-3.45 -29.832,-4.001 -44.748,-1.657 -14.916,2.35 -28.038,7.322 -39.361,14.916 -11.33,7.601 -20.51,17.545 -27.552,29.831 -7.044,12.294 -10.566,25.754 -10.566,40.398 0,11.045 2.693,21.889 8.079,32.524 5.386,10.631 12.222,19.539 20.509,26.724 8.286,7.181 16.988,12.774 26.103,16.782 9.115,4.001 18.088,4.9 26.931,2.692 8.836,-2.214 15.88,-7.457 21.13,-15.744 -20.994,-6.908 -33.009,-18.23 -36.046,-33.975 -2.764,-13.259 1.101,-24.446 11.602,-33.561 12.98,-11.329 29.139,-12.707 48.477,-4.143 l 6.214,3.315 c 7.457,4.143 14.981,11.187 22.581,21.13 7.594,9.944 14.501,20.989 20.716,33.147 6.214,12.152 12.701,25.41 19.473,39.776 6.766,14.358 13.116,28.238 19.059,41.638 5.938,13.396 12.431,26.239 19.473,38.533 7.045,12.288 14.017,22.304 20.925,30.04 6.9,7.729 14.638,13.259 23.202,16.573 8.559,3.315 17.401,2.758 26.518,-1.658 z" /></g></g></g><g
       id="g148"><g
         clip-path="url(#clipPath154)"
         id="g150"><g
           id="g156"><g
             id="g158"><path
               id="path168"
               style="fill:url(#linearGradient166);stroke:none"
               d="m 1663.325,1528.918 c -9.257,-1.244 -17.131,-5.043 -23.618,-11.394 v 0 c -6.492,-6.357 -12.085,-14.916 -16.779,-25.689 v 0 c -6.909,-16.851 -14.645,-40.882 -23.203,-72.092 v 0 h -6.215 c -4.972,0 -8.429,-0.415 -10.359,-1.243 v 0 c -1.934,-0.828 -3.314,-2.143 -4.142,-3.936 v 0 c -0.828,-1.801 -1.937,-5.594 -3.315,-11.394 v 0 c -0.557,-2.765 -1.107,-4.836 -1.658,-6.216 v 0 h 19.887 c -5.249,-20.994 -10.085,-41.296 -14.501,-60.905 v 0 l -13.672,-60.079 c -0.762,-3.195 -1.263,-6.264 -1.516,-9.213 v 0 c -3.959,-6.617 -7.737,-10.038 -11.325,-10.26 v 0 c -6.08,-0.278 -6.775,9.666 -2.074,29.832 v 0 c 2.759,11.601 6.559,27.617 11.396,48.061 v 0 c 4.828,20.438 8.213,35.076 10.15,43.919 v 0 c -11.602,4.973 -22.167,6.63 -31.696,4.973 v 0 c -9.529,-1.658 -16.644,-7.6 -21.338,-17.816 v 0 c -6.908,10.772 -17.13,16.158 -30.661,16.158 v 0 c -5.25,0 -10.636,-0.97 -16.159,-2.9 v 0 c -19.058,-6.629 -34.53,-22.787 -46.404,-48.476 v 0 c -11.602,-25.967 -15.053,-49.72 -10.358,-71.264 v 0 c 4.694,-21.546 16.988,-32.318 36.876,-32.318 v 0 c 16.571,0 31.76,8.007 45.575,24.031 v 0 c 2.486,-7.187 6.693,-13.052 12.636,-17.609 v 0 c 5.938,-4.557 12.703,-7.043 20.304,-7.459 v 0 c 7.593,-0.413 15.188,1.037 22.788,4.351 v 0 c 5.57,2.431 10.843,6.465 15.821,12.092 v 0 c 2.182,-3.366 4.984,-6.431 8.416,-9.192 v 0 c 11.872,-9.387 25.273,-11.187 40.189,-5.386 v 0 c 9.843,3.692 18.061,9.992 24.657,18.894 v 0 c 1.854,-2.711 3.989,-5.282 6.416,-7.707 v 0 c 9.387,-9.394 22.373,-13.945 38.945,-13.673 v 0 c 13.532,0.278 26.033,2.83 37.499,7.665 v 0 c 11.458,4.83 21.338,11.601 29.622,20.302 v 0 c 8.288,8.702 14.64,18.853 19.061,30.453 v 0 c 2.207,6.351 6.351,22.096 12.43,47.233 v 0 c -1.386,0 -3.178,0.066 -5.386,0.209 v 0 c -2.216,0.135 -3.665,0.206 -4.352,0.206 v 0 c -0.691,0 -1.728,-0.071 -3.106,-0.206 v 0 c -1.386,-0.143 -2.214,-0.279 -2.486,-0.415 v 0 c -0.278,-0.142 -0.83,-0.414 -1.658,-0.828 v 0 c -0.828,-0.415 -1.314,-0.829 -1.451,-1.244 v 0 c -0.141,-0.415 -0.484,-1.107 -1.036,-2.072 v 0 c -0.555,-0.97 -0.971,-1.935 -1.241,-2.899 v 0 c -0.279,-0.972 -0.558,-2.144 -0.83,-3.523 v 0 c -2.764,-12.158 -6.908,-22.517 -12.429,-31.076 v 0 c -4.699,-7.457 -9.88,-13.607 -15.538,-18.435 v 0 c -5.665,-4.837 -11.05,-8.079 -16.158,-9.737 v 0 c -5.115,-1.657 -9.944,-2.072 -14.501,-1.244 v 0 c -4.558,0.829 -8.358,3.172 -11.395,7.044 v 0 c -3.043,3.865 -10.637,17.952 -12.843,20.716 v 0 c 5.798,-1.657 9.942,-2.485 12.429,-2.485 v 0 c 13.531,-0.279 25.895,6.072 37.081,19.059 v 0 c 11.188,12.98 16.503,26.374 15.953,40.189 v 0 c -0.278,4.972 -1.451,9.873 -3.522,14.71 v 0 c -2.071,4.829 -4.908,9.18 -8.494,13.05 v 0 c -3.593,3.866 -7.943,6.694 -13.052,8.494 v 0 c -5.113,1.793 -10.635,2.415 -16.573,1.865 v 0 c -5.941,-0.557 -12.636,-3.108 -20.095,-7.666 v 0 c -7.457,-4.558 -14.914,-10.842 -22.374,-18.852 v 0 c -10.22,-11.05 -17.959,-24.102 -23.202,-39.153 v 0 c -5.243,-15.059 -7.458,-29.418 -6.628,-43.09 v 0 c 0.079,-1.31 0.21,-2.593 0.368,-3.863 v 0 c -4.269,-8.939 -8.532,-13.661 -12.796,-14.161 v 0 c -5.802,-0.557 -6.909,7.873 -3.315,25.274 v 0 l 1.243,6.215 c 12.152,54.135 25.588,110.553 25.588,110.553 v 0 c 0,0 20.401,0.416 22.06,1.938 v 0 c 1.657,1.514 3.314,6.279 4.971,14.293 v 0 c 0.551,2.486 0.965,4.558 1.243,6.216 v 0 h -22.374 c 8.287,30.66 16.019,54.691 23.202,72.092 v 0 c 5.245,12.702 11.739,22.232 19.475,28.589 v 0 c -9.366,5.85 -18.087,8.778 -26.16,8.778 v 0 c -1.452,0 -2.883,-0.094 -4.293,-0.284 M 1470.87,1271.413 c -2.765,11.602 -0.693,28.033 6.214,49.306 v 0 c 6.903,21.815 14.639,32.732 23.203,32.732 v 0 c 3.588,-0.279 6.074,-2.765 7.459,-7.459 v 0 c 2.758,-11.88 -0.278,-29.003 -9.116,-51.377 v 0 c -7.736,-19.887 -14.916,-29.832 -21.546,-29.832 v 0 c -3.042,0 -5.112,2.208 -6.214,6.63 m 222.906,43.918 c 4.414,12.981 9.53,22.511 15.329,28.589 v 0 c 6.352,7.181 11.602,8.424 15.746,3.729 v 0 c 3.586,-4.421 3.864,-10.222 0.828,-17.401 v 0 c -4.519,-10.045 -13.721,-15.068 -27.596,-15.068 v 0 c -1.389,0 -2.824,0.05 -4.307,0.151" /></g></g></g></g><g
       id="g170"><g
         clip-path="url(#clipPath176)"
         id="g172"><g
           transform="translate(1498.6309,1294.6152)"
           id="g178"><path
             id="path180"
             style="fill:none;stroke:#000000;stroke-width:6;stroke-linecap:butt;stroke-linejoin:miter;stroke-miterlimit:10;stroke-dasharray:none;stroke-opacity:1"
             d="m 0,0 c -7.736,-19.888 -14.917,-29.832 -21.546,-29.832 -3.042,0 -5.113,2.208 -6.215,6.629 -2.764,11.602 -0.693,28.034 6.215,49.307 6.901,21.815 14.638,32.731 23.202,32.731 C 5.244,58.557 7.73,56.07 9.115,51.377 11.873,39.497 8.837,22.374 0,0 Z m 210.475,49.305 c 6.351,7.18 11.601,8.424 15.745,3.729 3.587,-4.421 3.865,-10.222 0.828,-17.401 -4.972,-11.051 -15.609,-16.024 -31.903,-14.917 4.415,12.98 9.53,22.511 15.33,28.589 z m 72.508,-13.051 c -2.215,0.137 -3.665,0.207 -4.351,0.207 -0.692,0 -1.729,-0.07 -3.108,-0.207 -1.385,-0.142 -2.213,-0.278 -2.485,-0.415 -0.278,-0.142 -0.83,-0.413 -1.658,-0.828 -0.828,-0.415 -1.314,-0.828 -1.45,-1.243 -0.142,-0.415 -0.485,-1.107 -1.036,-2.072 -0.556,-0.97 -0.971,-1.935 -1.242,-2.899 -0.279,-0.972 -0.557,-2.144 -0.83,-3.523 -2.763,-12.158 -6.908,-22.517 -12.428,-31.075 -4.701,-7.458 -9.88,-13.608 -15.539,-18.436 -5.665,-4.837 -11.05,-8.08 -16.158,-9.738 -5.115,-1.656 -9.944,-2.071 -14.502,-1.243 -4.557,0.828 -8.357,3.173 -11.393,7.044 -3.044,3.864 -10.638,17.951 -12.844,20.716 5.799,-1.658 9.942,-2.486 12.429,-2.486 13.531,-0.279 25.895,6.072 37.082,19.06 11.187,12.98 16.502,26.375 15.952,40.189 -0.278,4.972 -1.45,9.873 -3.522,14.71 -2.071,4.829 -4.908,9.18 -8.494,13.05 -3.593,3.866 -7.942,6.694 -13.052,8.494 -5.113,1.793 -10.635,2.415 -16.573,1.865 C 201.84,86.867 195.145,84.316 187.687,79.758 180.229,75.2 172.771,68.916 165.312,60.907 155.092,49.856 147.354,36.804 142.11,21.752 c -5.243,-15.058 -7.458,-29.417 -6.628,-43.09 0.08,-1.309 0.21,-2.593 0.369,-3.863 -4.27,-8.938 -8.533,-13.66 -12.797,-14.16 -5.801,-0.557 -6.908,7.873 -3.315,25.274 l 1.243,6.214 c 12.152,54.136 25.588,110.554 25.588,110.554 0,0 20.402,0.416 22.06,1.938 1.657,1.514 3.314,6.278 4.972,14.293 0.55,2.486 0.964,4.558 1.243,6.216 h -22.374 c 8.287,30.66 16.017,54.691 23.202,72.092 5.244,12.702 11.738,22.232 19.474,28.589 -11.05,6.902 -21.203,9.737 -30.453,8.494 -9.257,-1.243 -17.131,-5.043 -23.618,-11.394 -6.492,-6.358 -12.085,-14.916 -16.779,-25.689 -6.908,-16.851 -14.645,-40.882 -23.203,-72.092 H 94.88 c -4.973,0 -8.43,-0.415 -10.359,-1.243 -1.935,-0.828 -3.315,-2.143 -4.143,-3.936 -0.828,-1.801 -1.937,-5.595 -3.315,-11.394 -0.557,-2.765 -1.107,-4.837 -1.658,-6.216 H 95.293 C 90.043,81.344 85.207,61.043 80.791,41.434 L 67.119,-18.645 c -0.762,-3.195 -1.263,-6.264 -1.515,-9.213 -3.959,-6.617 -7.738,-10.039 -11.327,-10.26 -6.079,-0.278 -6.773,9.666 -2.073,29.832 2.759,11.6 6.56,27.617 11.396,48.061 4.829,20.438 8.213,35.076 10.15,43.919 -11.602,4.973 -22.167,6.63 -31.696,4.973 -9.53,-1.658 -16.644,-7.601 -21.338,-17.816 -6.907,10.772 -17.13,16.158 -30.66,16.158 -5.251,0 -10.637,-0.97 -16.16,-2.9 -19.058,-6.629 -34.53,-22.787 -46.404,-48.476 -11.601,-25.967 -15.053,-49.72 -10.358,-71.264 4.694,-21.546 16.988,-32.318 36.876,-32.318 16.571,0 31.76,8.007 45.575,24.031 2.486,-7.187 6.693,-13.053 12.637,-17.609 5.937,-4.557 12.702,-7.044 20.302,-7.459 7.594,-0.413 15.189,1.037 22.789,4.351 5.57,2.431 10.843,6.465 15.821,12.092 2.182,-3.366 4.984,-6.432 8.416,-9.192 11.873,-9.387 25.273,-11.187 40.189,-5.386 9.844,3.691 18.062,9.992 24.657,18.894 1.855,-2.711 3.99,-5.282 6.416,-7.707 9.387,-9.394 22.373,-13.945 38.946,-13.673 13.531,0.278 26.032,2.829 37.498,7.665 11.458,4.829 21.338,11.601 29.623,20.301 8.288,8.703 14.639,18.853 19.059,30.454 2.208,6.351 6.352,22.096 12.431,47.233 -1.386,0 -3.179,0.066 -5.386,0.208 z" /></g></g></g></g></svg>